<!DOCTYPE svg PUBLIC "-//W3C//DTD SVG 1.1//EN" "http://www.w3.org/Graphics/SVG/1.1/DTD/svg11.dtd">
<!-- Uploaded to: SVG Repo, www.svgrepo.com, Transformed by: SVG Repo Mixer Tools -->
<svg width="800px" height="800px" viewBox="-4.8 -4.8 57.60 57.60" xmlns="http://www.w3.org/2000/svg" fill="#000000">
<g id="SVGRepo_bgCarrier" stroke-width="0">
<path transform="translate(-4.8, -4.8), scale(1.7999999999999998)" d="M16,30.414673472089426C19.273382202838764,30.29446537006896,21.966989374747996,28.205239944575393,24.532089753161067,26.16814861566595C27.182131322559556,24.06360068151804,30.207742485166136,21.9409532020547,30.853083702146094,18.618999403409532C31.50340617140421,15.271404146428758,29.855876768471212,11.913910470993333,27.83479258505016,9.167179315217906C25.997930130876615,6.670812576444862,23.110810492615258,5.503799434426668,20.27781438467013,4.246801573500653C17.171683585691206,2.868614092366087,13.924796600302724,0.36476128256670015,10.754743706170961,1.588776773452473C7.591967342589555,2.809982662602569,7.237795699878469,7.026463248431035,5.515531623421243,9.946789360472128C3.767210193057731,12.911299156109381,0.37392910873076185,15.275062411490627,0.6605868040110447,18.70475241468831C0.9539509542424723,22.21468119005762,4.125732982651185,24.67750668205086,6.9253738096632596,26.814718363783314C9.592441391801657,28.85072524635173,12.646880412578295,30.537809762468857,16,30.414673472089426" fill="#97e1ad" strokewidth="0"/>
</g>
<g id="SVGRepo_tracerCarrier" stroke-linecap="round" stroke-linejoin="round"/>
<g id="SVGRepo_iconCarrier"> <defs> <style>.cls-1{fill:#2f2c30;}.cls-2{fill:#2fc25b;}.cls-3{fill:#2aaf52;}.cls-4{fill:#444145;}</style> </defs> <title/> <g id="Idea"> <rect class="cls-1" height="4" rx="1" ry="1" width="16" x="16" y="41"/> <ellipse class="cls-1" cx="24" cy="47" rx="3" ry="1"/> <path class="cls-2" d="M40.944,15.605a16.993,16.993,0,0,1-8.881,16.366A3.96,3.96,0,0,0,30,35.464V36H18v-.535a3.94,3.94,0,0,0-2.045-3.484A17,17,0,1,1,40.944,15.605Z"/> <path class="cls-3" d="M32.06,31.97A3.957,3.957,0,0,0,30,35.46V36H23.64a4.3,4.3,0,0,1,1.74-3.25c4.777-3.185,9.427-7.229,10.533-13.153A21.093,21.093,0,0,0,32.6,4.756,9.682,9.682,0,0,0,25.83.1a17,17,0,0,1,6.23,31.87Z"/> <rect class="cls-1" height="4" rx="1" ry="1" width="16" x="16" y="36"/> <path class="cls-4" d="M18,45H30l-1.414,1.414A2,2,0,0,1,27.172,47H20.828a2,2,0,0,1-1.414-.586Z"/> <rect class="cls-4" height="1" width="12" x="18" y="40"/> </g> </g>
</svg>