<?xml version="1.0" encoding="utf-8"?>
<!-- Generator: Adobe Illustrator 27.1.1, SVG Export Plug-In . SVG Version: 6.00 Build 0)  -->
<svg version="1.1" id="Layer_1" xmlns="http://www.w3.org/2000/svg" xmlns:xlink="http://www.w3.org/1999/xlink" x="0px" y="0px"
	 viewBox="0 0 291 220" style="enable-background:new 0 0 291 220;" xml:space="preserve">
<style type="text/css">
	.st0{fill:#FFFFFF;}
	.st1{fill:#070808;}
	.st2{fill:#C4C4C4;}
	.st3{fill:#686868;}
</style>
<g>
	<g>
		<path d="M183.43,46.27c-1.61,1.53-1.45,7.29-1.45,7.29L172,61.77l-24.71-13.43c0,0-7.91-4.68-4.68-12.13
			c3.16-7.3,12.31-3.68,12.65-3.53c0,0,0,0,0.01,0c0,0,1.61-4.22,8.52-4.22c7.14,0,7.98,6.37,7.98,6.37s4.68-3.76,9.13-0.3
			C186.37,38.77,185.04,44.74,183.43,46.27z"/>
	</g>
	<g>
		<path class="st0" d="M181.3,67.62c0.04,3.45,7.1,18.34,7.1,18.34l-10.82,19.8l-18.34-0.69l-1-17.19l0.33-2.68l0.67-5.38
			c0,0-2.99,0.38-6.37,0.85c-10.51,0.46-12.47-7.16-8.63-14.68c3.84-7.52,2.88-19.32,2.88-19.32s5.07,0.23,11.05,0
			c5.99-0.23,9.51,8.36,11.89,12.35c2.38,3.99,5.45-1.76,6.91-4.37c1.45-2.61,10.73-5.41,12.28,1.31
			C191.24,64.58,181.3,67.62,181.3,67.62z"/>
		<path d="M177.73,106.01l-18.71-0.71L158,87.89l0.96-7.78c-0.85,0.11-3.32,0.43-6.05,0.8c-4.55,0.2-7.83-1.08-9.51-3.7
			c-1.83-2.84-1.6-6.97,0.63-11.34c3.76-7.37,2.86-19.07,2.85-19.18l-0.02-0.28l0.28,0.01c0.05,0,5.13,0.23,11.03,0
			c5.18-0.22,8.5,5.88,10.91,10.31c0.43,0.79,0.83,1.54,1.21,2.16c0.49,0.83,1.04,1.25,1.62,1.25c0.01,0,0.01,0,0.02,0
			c1.73-0.02,3.67-3.51,4.71-5.38l0.13-0.24c0.94-1.69,4.85-3.37,8.07-2.91c1.73,0.25,3.94,1.19,4.66,4.29
			c1.87,8.09-6.57,11.41-7.93,11.89c0.26,3.67,7,17.92,7.07,18.06l0.05,0.11l-0.06,0.11L177.73,106.01z M159.48,104.83l17.97,0.68
			l10.69-19.56c-0.7-1.49-7.03-14.98-7.07-18.33l0-0.18l0.18-0.05c0.02-0.01,2.47-0.77,4.65-2.56c2.88-2.37,3.93-5.34,3.13-8.81
			c-0.65-2.83-2.67-3.69-4.25-3.91c-2.99-0.43-6.72,1.14-7.57,2.67L177.06,55c-1.17,2.1-3.12,5.6-5.13,5.63c-0.01,0-0.02,0-0.03,0
			c-0.77,0-1.46-0.5-2.04-1.49c-0.38-0.63-0.78-1.38-1.22-2.18c-2.35-4.32-5.58-10.25-10.46-10.06c-5.14,0.2-9.66,0.05-10.8,0.01
			c0.11,1.83,0.58,12.31-2.92,19.17c-2.11,4.15-2.36,8.2-0.65,10.85c1.58,2.46,4.71,3.66,9.05,3.47c3.36-0.46,6.35-0.84,6.35-0.84
			l0.31-0.04l-1.04,8.37L159.48,104.83z"/>
	</g>
	<g>
		<path d="M158.58,84.99l0.67-5.38c0,0,5.34-1.43,7.27-4.51C166.52,75.11,166.9,82.46,158.58,84.99z"/>
	</g>
	<g>
		<path class="st0" d="M136.61,94.33c0,0-24.28,5.22-24.28,5.22c-6.66,9.7-13.12,19.56-19.19,29.64c-2.03,3.37-4.02,6.77-5.83,10.26
			c-4.71,9.07-3.75,22.14-0.16,31.56c1.99,5.22,5.45,9.78,10.45,12.41c7.56,3.97,16.85,3.18,24.8,0.91c1.04-0.3,2.96-1.43,4.03-1.36
			c0.01,0,31.59,2.12,37.39,0.65c5.8-1.47,37.26,5.31,53.38,6.08c32.7,0,49.21-10.52,37.39-49.21
			c-11.82-38.69-45.38-47.09-45.38-47.09l-16.23-4.36l-5.15-4.48c-12.88,17.79-19.63,16.25-19.63,16.25
			c-5.77-0.86-9.69-13.61-9.69-13.61l-10.76,4.94L136.61,94.33z"/>
		<path d="M217.2,189.95c-7.41-0.35-17.83-1.94-27.91-3.47c-11.47-1.75-22.31-3.4-25.41-2.61c-5.77,1.47-37.18-0.61-37.47-0.64
			c-0.64-0.04-1.66,0.41-2.57,0.8c-0.51,0.22-0.99,0.44-1.38,0.54c-6.86,1.96-16.76,3.39-24.98-0.92
			c-4.73-2.48-8.38-6.82-10.56-12.54c-3.44-9.03-4.72-22.35,0.17-31.76c1.9-3.66,4.02-7.24,5.84-10.27
			c5.55-9.21,11.83-18.91,19.2-29.66l0.06-0.08l24.38-5.24l11.12-2.18l10.99-5.05l0.08,0.27c0.04,0.13,3.95,12.62,9.49,13.44
			c0.08,0.01,6.81,1.22,19.39-16.15l0.16-0.22l5.31,4.62l16.18,4.34c0.08,0.02,8.54,2.19,18.33,9.07
			c9.03,6.35,21.09,18.13,27.21,38.18c5.34,17.5,5.09,29.86-0.79,37.8C248.11,186.22,236.41,189.95,217.2,189.95z M166.23,183.17
			c4.61,0,13.33,1.33,23.13,2.82c10.07,1.53,20.48,3.12,27.85,3.47c19.03,0,30.61-3.66,36.43-11.53c5.78-7.8,6.01-20.03,0.71-37.36
			c-6.08-19.91-18.04-31.61-27.01-37.91c-9.72-6.84-18.11-8.99-18.19-9.01l-16.29-4.37l-0.04-0.04l-4.95-4.3
			c-12.73,17.49-19.44,16.2-19.72,16.13c-5.43-0.81-9.17-11.61-9.79-13.51l-10.56,4.85l-11.15,2.18l-24.18,5.2
			c-7.34,10.7-13.6,20.37-19.13,29.55c-1.82,3.02-3.93,6.6-5.83,10.24c-4.82,9.28-3.55,22.44-0.14,31.36
			c2.14,5.61,5.71,9.85,10.33,12.28c8.08,4.24,17.84,2.82,24.62,0.89c0.35-0.1,0.82-0.31,1.31-0.52c0.96-0.42,2.05-0.89,2.8-0.84
			c0.31,0.02,31.56,2.12,37.31,0.66C164.34,183.24,165.18,183.17,166.23,183.17z"/>
	</g>
	<g>
		<path d="M163.24,114.36c0,0-19.01,33.75-16.92,51.13l22.11-6.11c0,0,0.66-39.98,2.83-43.66
			C171.25,115.72,166.26,117.02,163.24,114.36z"/>
	</g>
	<g>
		<path d="M163.39,113.23c0,0,5.78,1.52,7.53,1.12l1.79-3.03c0,0-3.65-3.09-4.5-10.5c-6.17,8.47-6.02,7.83-6.02,7.83
			S163.3,109.98,163.39,113.23z"/>
	</g>
	<g>
		<path class="st1" d="M126.37,172.24c0,0-9.09,8.2-7.29,14.89c1.8,6.69,20.08,3.02,20.08,3.02l7.49-19.94L126.37,172.24z"/>
	</g>
	<g>
		<path class="st0" d="M124.63,181.58c-0.02,0-0.03,0-0.05,0c-0.27-0.03-0.47-0.26-0.44-0.53c0.01-0.14,0.36-3.37,5.11-6.48
			c0.23-0.15,0.53-0.09,0.68,0.14c0.15,0.23,0.09,0.53-0.14,0.68c-4.32,2.83-4.67,5.73-4.68,5.76
			C125.09,181.39,124.88,181.58,124.63,181.58z"/>
	</g>
	<g>
		<path class="st0" d="M130.54,187.74c-0.01,0-0.02,0-0.03,0c-8.44-0.91-11.63-3.79-11.76-3.91c-0.1-0.09-0.1-0.25-0.01-0.35
			c0.09-0.1,0.25-0.11,0.35-0.01c0.03,0.03,3.22,2.9,11.48,3.78c0.14,0.01,0.23,0.14,0.22,0.27
			C130.77,187.65,130.67,187.74,130.54,187.74z"/>
	</g>
	<g>
		<path class="st0" d="M125.53,173.5c0.98-2.95,15.35-13.05,35.6-16s29.09-2.94,29.09-2.94s8.6,20.09,7.79,32.98
			c0,0-29.44-5.27-35.24-3.54s-19.48,11.6-19.48,5.11c0,0-7.19,4.24-4.42-3.03c0,0-5.8,6.49-4.5,0.78
			c1.3-5.71,7.79-16.28,7.79-16.28S124.13,177.72,125.53,173.5z"/>
		<path d="M145.41,191.53c-0.55,0-1.02-0.1-1.4-0.33c-0.54-0.33-0.85-0.9-0.93-1.69c-0.95,0.51-3.39,1.66-4.52,0.7
			c-0.63-0.53-0.72-1.57-0.26-3.15c-1.1,1.11-2.95,2.76-3.86,2.3c-0.53-0.28-0.63-1.09-0.29-2.57c1.13-4.96,6.03-13.37,7.45-15.73
			c-3.12,1.2-14.24,5.32-16.09,3.57c-0.21-0.2-0.42-0.58-0.21-1.22l0,0c1.14-3.42,16.24-13.32,35.8-16.16
			c20.04-2.91,29.04-2.95,29.12-2.95h0.16l0.06,0.15c0.09,0.2,8.62,20.29,7.81,33.09l-0.02,0.27l-0.27-0.05
			c-0.29-0.05-29.45-5.25-35.12-3.55c-1.75,0.52-4.22,1.79-6.85,3.14C152.01,189.42,147.9,191.53,145.41,191.53z M143.55,188.67
			v0.43c0,0.84,0.23,1.39,0.71,1.68c1.84,1.12,6.98-1.52,11.52-3.85c2.64-1.36,5.14-2.64,6.93-3.17c5.56-1.66,31.91,2.93,35.08,3.49
			c0.63-12.11-6.95-30.58-7.73-32.44c-1.29,0.02-10.35,0.25-28.89,2.94c-20.43,2.97-34.47,13.03-35.41,15.83l0,0
			c-0.14,0.43-0.02,0.61,0.08,0.71c1.36,1.29,10.46-1.65,16.24-3.94l0.69-0.27l-0.39,0.63c-0.06,0.11-6.49,10.59-7.76,16.2
			c-0.38,1.66-0.07,1.97,0.04,2.02c0.64,0.33,2.75-1.57,4.04-3.02l0.89-0.99l-0.47,1.24c-0.73,1.92-0.82,3.19-0.24,3.68
			c0.91,0.77,3.42-0.42,4.31-0.94L143.55,188.67z"/>
	</g>
	<g>
		<path d="M186.62,162.53l3.78,24.22l-11.8-2c0,0-1.32-17.73-3.63-19.69C174.96,165.06,180.44,166.26,186.62,162.53z"/>
	</g>
	<g>
		<path d="M178.06,114.99c-0.63,0-1.24-0.18-1.83-0.53c-6.81-4.12-8.01-10.69-8.22-12.89c-1.66,2.45-7.87,11.24-11.45,11.24
			c-0.14,0-0.27-0.01-0.4-0.04c-1-0.21-1.66-1.17-1.96-2.88c-1.65-9.45,0.67-21.06,0.7-21.18c0.03-0.13,0.16-0.22,0.29-0.19
			c0.13,0.03,0.22,0.16,0.19,0.29c-0.02,0.12-2.33,11.64-0.69,21c0.26,1.48,0.79,2.32,1.57,2.48c1.48,0.3,3.96-1.59,7.2-5.47
			c2.48-2.98,4.52-6.1,4.54-6.13l0.45,0.14c0,0.08,0.04,8.37,8.03,13.21c0.88,0.53,1.78,0.61,2.76,0.23
			c6.68-2.58,13.43-25.06,13.5-25.29c0.04-0.13,0.17-0.2,0.31-0.17c0.13,0.04,0.2,0.18,0.17,0.31c-0.02,0.06-1.73,5.78-4.25,11.75
			c-3.41,8.07-6.62,12.73-9.54,13.85C178.96,114.9,178.51,114.99,178.06,114.99z"/>
	</g>
	<g>
		<path d="M209.74,154.23c-0.2-0.34-19.7-33.89-12.42-51.4c2.05-4.93,6.03-8.18,11.84-9.67l0.12,0.48
			c-5.65,1.45-9.52,4.61-11.5,9.38c-7.19,17.28,12.19,50.62,12.39,50.96L209.74,154.23z"/>
	</g>
	<g>
		<path d="M216.95,189.71c-0.01-0.25-1.17-25.38-9.92-35.74l0.38-0.32c4.64,5.48,7.12,15,8.38,22.01
			c1.37,7.58,1.65,13.96,1.66,14.02L216.95,189.71z"/>
	</g>
	<g>
		<path d="M198.26,187.54l-0.49-0.01c0-0.15,0.24-14.87-7.6-32.89l-0.14-0.31l0.34-0.03c0.07-0.01,7.58-0.7,16.24-0.72
			c11.66-0.05,19.74,1.09,24.04,3.34l-0.23,0.44c-9.51-4.98-36.33-2.88-39.66-2.6C198.51,172.74,198.27,187.4,198.26,187.54z"/>
	</g>
	<g>
		<circle cx="208.37" cy="182.85" r="1.65"/>
	</g>
	<g>
		<circle cx="134.32" cy="119.68" r="1.65"/>
	</g>
	<g>
		<ellipse transform="matrix(0.9867 -0.1628 0.1628 0.9867 -23.296 31.1865)" cx="178.6" cy="157.7" rx="10.31" ry="6.54"/>
	</g>
	<g>
		<path d="M131.1,162.08l-0.48-0.12c0.07-0.27,6.73-26.94,7.39-32.64l2.82-17.17l0.48,0.08l-2.82,17.16
			C137.84,135.11,131.17,161.81,131.1,162.08z"/>
	</g>
	<g>
		<path d="M137.13,129.62c-15.39,0-30.84-10.31-31-10.41l0.27-0.41c0.16,0.11,16.26,10.85,31.85,10.31l0.02,0.49
			C137.89,129.61,137.51,129.62,137.13,129.62z"/>
	</g>
	<g>
		<path d="M143.53,189.21l-0.45-0.2c2.86-6.23,11.43-11.41,11.52-11.46l0.25,0.42C154.76,178.01,146.32,183.11,143.53,189.21z"/>
	</g>
	<g>
		<path d="M139.54,185.46l-0.43-0.24c2.24-4.05,11.09-12.9,11.46-13.27l0.35,0.35C150.83,172.39,141.75,181.47,139.54,185.46z"/>
	</g>
	<g>
		<path class="st0" d="M141.08,112.2l6.38-20.73c0,0,6.49-0.8,7.57-7.52c0.34-2.9-1.89-4.16-4.1-4.16c0,0-1.42-3.64-4.61-2.9
			c0,0-1.21-3.13-3.51-2.68c0,0-0.54-2.54,0.51-4.64c1.05-2.09,2.58-5.96,2.61-6.87c0.03-0.91-2.37-0.91-5.68,2.13
			c-3.31,3.03-24.94,26.08-27.92,34.71C112.33,99.55,130.7,112.83,141.08,112.2z"/>
		<path d="M140.34,112.47c-10.43,0-27.42-12.19-28.15-12.72l-0.15-0.11l0.06-0.17c2.96-8.58,24.33-31.45,27.99-34.81
			c2.6-2.38,4.76-3.02,5.66-2.6c0.29,0.13,0.44,0.37,0.43,0.66c-0.04,0.99-1.65,4.98-2.64,6.97c-0.82,1.63-0.63,3.59-0.53,4.25
			c2-0.2,3.15,1.99,3.45,2.67c2.83-0.51,4.3,2.25,4.63,2.94c1.38,0.04,2.59,0.53,3.35,1.38c0.69,0.78,0.98,1.83,0.84,3.05
			c-1,6.23-6.6,7.52-7.63,7.71l-6.38,20.74l-0.17,0.01C140.85,112.46,140.59,112.47,140.34,112.47z M112.62,99.46
			c1.76,1.25,18.56,12.94,28.27,12.5l6.37-20.71l0.16-0.02c0.26-0.03,6.32-0.86,7.36-7.31c0.13-1.08-0.11-1.98-0.72-2.65
			c-0.69-0.77-1.83-1.22-3.14-1.22h-0.17l-0.06-0.16c-0.06-0.14-1.39-3.44-4.33-2.75l-0.21,0.05l-0.08-0.2
			c-0.01-0.03-1.16-2.93-3.23-2.52l-0.24,0.05l-0.05-0.24c-0.02-0.11-0.54-2.65,0.53-4.8c1.05-2.11,2.56-5.91,2.59-6.77
			c0-0.06-0.01-0.14-0.15-0.2c-0.61-0.28-2.54,0.15-5.12,2.52C136.79,68.35,115.78,90.82,112.62,99.46z"/>
	</g>
	<g>
		
			<ellipse transform="matrix(0.9867 -0.1628 0.1628 0.9867 -22.9745 31.106)" class="st0" cx="178.27" cy="155.7" rx="10.31" ry="6.54"/>
		<path d="M176.72,162.62c-1.81,0-3.52-0.32-4.99-0.94c-2.2-0.94-3.58-2.45-3.88-4.26c-0.61-3.69,3.57-7.47,9.31-8.41
			c5.74-0.95,10.91,1.28,11.52,4.98l0,0c0.61,3.69-3.57,7.47-9.31,8.41C178.48,162.55,177.59,162.62,176.72,162.62z M179.81,149.28
			c-0.83,0-1.69,0.07-2.57,0.21c-5.47,0.9-9.47,4.42-8.9,7.85c0.27,1.64,1.54,3.02,3.59,3.88c2.08,0.88,4.7,1.13,7.37,0.69
			c5.47-0.9,9.47-4.42,8.9-7.85l0,0C187.72,151.19,184.18,149.28,179.81,149.28z"/>
	</g>
	<g>
		<path d="M172.22,156.92c-0.12,0-0.23-0.09-0.24-0.21c-0.02-0.13,0.08-0.26,0.21-0.28l6.37-0.86l-1.21-4.07
			c-0.04-0.13,0.04-0.27,0.17-0.31c0.13-0.04,0.27,0.04,0.31,0.17l1.38,4.62l-6.94,0.94C172.24,156.92,172.23,156.92,172.22,156.92z
			"/>
	</g>
	<g>
		<path d="M151.8,61.75c-0.01,0-0.02,0-0.03,0c-1.36-0.16-2.13-1.01-2.29-1.79c-0.15-0.73,0.18-1.41,0.88-1.82
			c1.38-0.8,1.67-4.05,1.67-4.08c0.01-0.14,0.13-0.24,0.27-0.22c0.14,0.01,0.24,0.13,0.22,0.27c-0.01,0.14-0.32,3.54-1.92,4.46
			c-0.52,0.3-0.76,0.78-0.65,1.3c0.13,0.6,0.75,1.27,1.87,1.4c0.13,0.02,0.23,0.14,0.22,0.27C152.03,61.66,151.93,61.75,151.8,61.75
			z"/>
	</g>
	<g>
		<path d="M156.2,54.23c0,0,3.72,2.09,5.81,1.98c0,0-3.03,1.67-5.29,1.25C154.46,57.05,154.78,54.2,156.2,54.23z"/>
	</g>
	<g>
		<path d="M148.2,54.37c0,0,2.61,1.04,4.14,0c0,0-0.17,2.09-0.94,2.12S148.2,55.8,148.2,54.37z"/>
	</g>
	<g>
		<g>
			<path d="M153.73,68.74c-0.03,0-0.05,0-0.08-0.01c-0.13-0.05-0.2-0.19-0.15-0.31c0.01-0.03,1.26-3.45,4.61-2.98
				c0.13,0.02,0.23,0.14,0.21,0.28c-0.02,0.13-0.14,0.68-0.28,0.66c-2.97-0.42-4.07,2.17-4.08,2.2
				C153.93,68.68,153.84,68.74,153.73,68.74z"/>
		</g>
	</g>
	<g>
		<path d="M156.1,48.46c-1.25,0.7,0.66,2.05,2.23,2.61c1.57,0.56,4.35,1.67,4.59,2.4c0.24,0.73,0.8-1.01,0-2.5
			C162.12,49.47,158.53,47.1,156.1,48.46z"/>
	</g>
	<g>
		<path d="M147.65,50.85c0,0,2.23-1.34,3.9-1.31s0.03-1.91-1.08-1.91c-1.11,0-3.2,0.62-3.2,0.62L147.65,50.85z"/>
	</g>
	<g>
		<path d="M177.05,63.01c-0.02,0-0.05,0-0.07-0.01c-0.13-0.04-0.2-0.18-0.16-0.31c0.02-0.07,2.19-6.92,7.42-6.44
			c0.14,0.01,0.23,0.13,0.22,0.27c-0.01,0.14-0.14,0.24-0.27,0.22c-4.83-0.45-6.88,6.03-6.9,6.09
			C177.25,62.94,177.15,63.01,177.05,63.01z"/>
	</g>
	<g>
		<path d="M178.44,68.42c-1.48,0-2.65-0.35-2.73-0.37c-0.13-0.04-0.2-0.18-0.16-0.31c0.04-0.13,0.18-0.2,0.31-0.16
			c0.03,0.01,2.95,0.88,5.34-0.18c0.12-0.05,0.27,0,0.32,0.12s0,0.27-0.12,0.32C180.42,68.28,179.37,68.42,178.44,68.42z"/>
	</g>
	<g>
		<path class="st2" d="M91.74,185.21v3.05H59.6c-1.89,0-3.12-1.99-2.27-3.67l9.58-19.1h16.07l-9.36,19.72H91.74z"/>
	</g>
	<g>
		<circle cx="233.59" cy="54.08" r="22.35"/>
	</g>
	<g>
		<path class="st3" d="M91.74,185.21v3.05H74.65c0,0-2.63-0.74-1.04-3.05H91.74z"/>
	</g>
	<g>
		<circle class="st0" cx="233.59" cy="54.08" r="18.51"/>
	</g>
	<g>
		<path d="M239.07,61.12c-0.14,0-0.28-0.06-0.38-0.18l-5.6-6.69V41.62c0-0.27,0.22-0.49,0.49-0.49c0.27,0,0.49,0.22,0.49,0.49V53.9
			l5.37,6.42c0.17,0.21,0.15,0.52-0.06,0.69C239.3,61.09,239.18,61.12,239.07,61.12z"/>
	</g>
	<g>
		<circle cx="233.59" cy="68.57" r="1.17"/>
	</g>
	<g>
		<circle cx="233.59" cy="37.81" r="1.17"/>
	</g>
	<g>
		<circle cx="249.72" cy="53.55" r="1.17"/>
	</g>
	<g>
		<circle cx="217.79" cy="53.55" r="1.17"/>
	</g>
	<g>
		<path class="st2" d="M24.24,112.2h77.17c2.88,0,5.4,1.9,6.2,4.67l12.51,43.41c1.08,3.73-1.73,7.46-5.61,7.46H39.76
			c-2.7,0-5.07-1.78-5.83-4.36l-13.54-46.03C19.63,114.77,21.56,112.2,24.24,112.2z"/>
	</g>
	<g>
		<path d="M137.21,78.09c-0.05,0-0.1-0.02-0.15-0.05c-0.11-0.08-0.13-0.23-0.05-0.34c0.1-0.14,2.56-3.44,5.61-3.65
			c0.14-0.01,0.25,0.09,0.26,0.23c0.01,0.14-0.09,0.25-0.23,0.26c-2.82,0.19-5.22,3.42-5.24,3.45
			C137.36,78.06,137.29,78.09,137.21,78.09z"/>
	</g>
	<g>
		<path d="M142.43,79.43c-0.02,0-0.05,0-0.07-0.01c-0.13-0.04-0.2-0.17-0.16-0.3c0.02-0.08,0.65-2.07,4.07-2.49
			c0.13-0.02,0.26,0.08,0.27,0.21c0.02,0.13-0.08,0.26-0.21,0.27c-3.07,0.38-3.64,2.07-3.66,2.15
			C142.63,79.36,142.53,79.43,142.43,79.43z"/>
	</g>
	<g>
		<path d="M146.27,82.98c-0.02,0-0.05,0-0.08-0.01c-0.13-0.04-0.2-0.18-0.16-0.31c0.01-0.03,1.03-3.1,4.87-3.14
			c0.16,0,0.25,0.11,0.25,0.24c0,0.14-0.11,0.25-0.24,0.25c-3.47,0.04-4.37,2.69-4.4,2.8C146.47,82.92,146.38,82.98,146.27,82.98z"
			/>
	</g>
	<g>
		<path d="M147.49,91.69c-0.02,0-0.04,0-0.06-0.01c-0.13-0.03-0.21-0.16-0.18-0.3l1.63-6.99c0.03-0.13,0.16-0.21,0.29-0.18
			c0.13,0.03,0.21,0.16,0.18,0.3l-1.63,6.99C147.71,91.62,147.61,91.69,147.49,91.69z"/>
	</g>
</g>
</svg>
