<!DOCTYPE svg PUBLIC "-//W3C//DTD SVG 1.1//EN" "http://www.w3.org/Graphics/SVG/1.1/DTD/svg11.dtd">

<!-- Uploaded to: SVG Repo, www.svgrepo.com, Transformed by: SVG Repo Mixer Tools -->
<svg fill="#97e1ad" height="800px" width="800px" version="1.1" id="Layer_1" xmlns="http://www.w3.org/2000/svg" xmlns:xlink="http://www.w3.org/1999/xlink" viewBox="0 0 512 512" xml:space="preserve">

<g id="SVGRepo_bgCarrier" stroke-width="0"/>

<g id="SVGRepo_tracerCarrier" stroke-linecap="round" stroke-linejoin="round"/>

<g id="SVGRepo_iconCarrier"> <g> <g> <path d="M478.33,427.023c-4.427,0-8.017,3.588-8.017,8.017v52.376h-96.304c1.098-2.82,1.707-5.882,1.707-9.086 c0-4.657-1.278-9.019-3.496-12.763c7.219-4.418,12.047-12.376,12.047-21.442c0-3.482-0.714-6.801-2-9.819 c10.954-2.703,19.102-12.609,19.102-24.386c0-13.851-11.268-25.119-25.119-25.119h-2.241c1.098-2.82,1.707-5.882,1.707-9.086 c0-13.851-11.268-25.119-25.119-25.119H269.26l22.355-17.471c10.912-8.529,12.852-24.345,4.325-35.259 c-8.529-10.912-24.345-12.853-35.26-4.325l-73.005,57.054h-26.271V332.96c0-4.428-3.589-8.017-8.017-8.017H8.017 c-4.427,0-8.017,3.588-8.017,8.017v162.472c0,4.428,3.589,8.017,8.017,8.017h145.37c1.688,0,3.252-0.524,4.543-1.414 c1.291,0.89,2.855,1.414,4.543,1.414h119.716h68.409H478.33c4.427,0,8.017-3.588,8.017-8.017V435.04 C486.347,430.611,482.757,427.023,478.33,427.023z M145.37,487.415H16.033V340.977H145.37V487.415z M359.148,453.211h-8.551 h-68.409c-4.427,0-8.017,3.588-8.017,8.017s3.589,8.017,8.017,8.017h68.409c5.01,0,9.086,4.076,9.086,9.086 c0,5.01-4.076,9.086-9.086,9.086h-68.409H162.472c-0.363,0-0.718,0.032-1.069,0.079V366.63h28.86c1.744,0,3.354-0.563,4.67-1.509 c0.387-0.21,0.764-0.446,1.122-0.726l74.495-58.219c3.948-3.086,9.668-2.383,12.754,1.564c3.085,3.947,2.383,9.668-1.564,12.754 l-40.011,31.269c-3.068,2.398-3.913,6.582-2.218,9.93c1.208,2.899,4.066,4.937,7.402,4.937h103.683 c5.01,0,9.086,4.076,9.086,9.086c0,5.01-4.076,9.086-9.086,9.086h-68.409c-4.427,0-8.017,3.588-8.017,8.017 c0,4.428,3.589,8.017,8.017,8.017h68.409h25.653c5.01,0,9.086,4.076,9.086,9.086c0,5.01-4.076,9.086-9.086,9.086h-17.102h-76.96 c-4.427,0-8.017,3.588-8.017,8.017s3.589,8.017,8.017,8.017h76.96c5.01,0,9.086,4.076,9.086,9.086 C368.234,449.135,364.158,453.211,359.148,453.211z"/> </g> </g> <g> <g> <path d="M503.983,8.551H9.086c-4.427,0-8.017,3.588-8.017,8.017v76.96c0,4.428,3.589,8.017,8.017,8.017h17.637v205.228 c0,4.428,3.589,8.017,8.017,8.017c4.427,0,8.017-3.588,8.017-8.017V101.545h42.756c4.427,0,8.017-3.588,8.017-8.017 s-3.589-8.017-8.017-8.017H17.102V24.585h478.864v60.927H119.716c-4.427,0-8.017,3.588-8.017,8.017s3.589,8.017,8.017,8.017 h350.597v299.29c0,4.428,3.589,8.017,8.017,8.017c4.427,0,8.017-3.588,8.017-8.017v-299.29h17.637 c4.427,0,8.017-3.588,8.017-8.017v-76.96C512,12.139,508.411,8.551,503.983,8.551z"/> </g> </g> <g> <g> <path d="M428.092,119.716H86.046c-4.427,0-8.017,3.588-8.017,8.017v102.614c0,4.428,3.589,8.017,8.017,8.017h342.046 c4.427,0,8.017-3.588,8.017-8.017V127.733C436.109,123.304,432.519,119.716,428.092,119.716z M420.075,222.33H94.063v-86.58 h326.013V222.33z"/> </g> </g> <g> <g> <path d="M137.353,153.386c-4.427,0-8.017,3.588-8.017,8.017v34.205c0,4.428,3.589,8.017,8.017,8.017 c4.427,0,8.017-3.588,8.017-8.017v-34.205C145.37,156.974,141.78,153.386,137.353,153.386z"/> </g> </g> <g> <g> <path d="M161.937,153.386c-4.427,0-8.017,3.588-8.017,8.017v34.205c0,4.428,3.589,8.017,8.017,8.017s8.017-3.588,8.017-8.017 v-34.205C169.954,156.974,166.365,153.386,161.937,153.386z"/> </g> </g> <g> <g> <path d="M222.864,153.386c-4.427,0-8.017,3.588-8.017,8.017v34.205c0,4.428,3.589,8.017,8.017,8.017s8.017-3.588,8.017-8.017 v-34.205C230.881,156.974,227.292,153.386,222.864,153.386z"/> </g> </g> <g> <g> <path d="M257.069,153.386c-4.427,0-8.017,3.588-8.017,8.017v34.205c0,4.428,3.589,8.017,8.017,8.017s8.017-3.588,8.017-8.017 v-34.205C265.086,156.974,261.496,153.386,257.069,153.386z"/> </g> </g> <g> <g> <path d="M291.273,153.386c-4.427,0-8.017,3.588-8.017,8.017v34.205c0,4.428,3.589,8.017,8.017,8.017s8.017-3.588,8.017-8.017 v-34.205C299.29,156.974,295.701,153.386,291.273,153.386z"/> </g> </g> <g> <g> <path d="M376.785,153.386c-4.427,0-8.017,3.588-8.017,8.017v34.205c0,4.428,3.589,8.017,8.017,8.017s8.017-3.588,8.017-8.017 v-34.205C384.802,156.974,381.212,153.386,376.785,153.386z"/> </g> </g> <g> <g> <path d="M350.063,153.386c-4.427,0-8.017,3.588-8.017,8.017v34.205c0,4.428,3.589,8.017,8.017,8.017s8.017-3.588,8.017-8.017 v-34.205C358.079,156.974,354.49,153.386,350.063,153.386z"/> </g> </g> <g> <g> <path d="M111.165,427.023c-13.851,0-25.119,11.268-25.119,25.119s11.268,25.119,25.119,25.119s25.119-11.268,25.119-25.119 S125.016,427.023,111.165,427.023z M111.165,461.228c-5.01,0-9.086-4.076-9.086-9.086c0-5.01,4.076-9.086,9.086-9.086 s9.086,4.076,9.086,9.086C120.251,457.152,116.175,461.228,111.165,461.228z"/> </g> </g> <g> <g> <path d="M51.307,427.023c-13.851,0-25.119,11.268-25.119,25.119s11.268,25.119,25.119,25.119s25.119-11.268,25.119-25.119 S65.158,427.023,51.307,427.023z M51.307,461.228c-5.01,0-9.086-4.076-9.086-9.086c0-5.01,4.076-9.086,9.086-9.086 s9.086,4.076,9.086,9.086C60.392,457.152,56.317,461.228,51.307,461.228z"/> </g> </g> </g>

</svg>