<?xml version="1.0" encoding="utf-8"?>
<!-- Generator: Adobe Illustrator 27.1.1, SVG Export Plug-In . SVG Version: 6.00 Build 0)  -->
<svg version="1.1" id="Layer_1" xmlns="http://www.w3.org/2000/svg" xmlns:xlink="http://www.w3.org/1999/xlink" x="0px" y="0px"
	 viewBox="0 0 338 262" style="enable-background:new 0 0 338 262;" xml:space="preserve">
<style type="text/css">
	.st0{clip-path:url(#SVGID_00000136396673710187566430000011133892257082977676_);}
	.st1{fill:#FFFFFF;}
	.st2{fill:#C4C4C4;}
</style>
<g>
	<g>
		<defs>
			<circle id="SVGID_1_" cx="232.96" cy="89.9" r="60.89"/>
		</defs>
		<clipPath id="SVGID_00000147218547890584824060000003992034165304406949_">
			<use xlink:href="#SVGID_1_"  style="overflow:visible;"/>
		</clipPath>
		<g style="clip-path:url(#SVGID_00000147218547890584824060000003992034165304406949_);">
			<g>
				<g>
					<path d="M218.46,43.96c-1.7,7.15,2.28,10.06,6.83,9.53c4.55-0.54,17.01,11.94,17.01,11.94l8.13-9.48c0,0-1.39-6.96-0.39-9.26
						c1-2.31,0.65-6.91-3.65-8.48c-4.31-1.57-8.13,1.7-8.13,1.7s-0.7-2.91-4.7-3.39c-4-0.48-6.39,1.96-6.96,4.52
						C226.6,41.03,219.67,38.85,218.46,43.96z"/>
				</g>
			</g>
			<g>
				<g>
					<path d="M297.41,100.89c-1.01-1.36-2.25-2.72-3.65-4.05c-0.18-0.17-0.37-0.34-0.56-0.52c-4.88-4.49-11.44-8.66-16.7-11.67
						c-7.58-4.35-14.17-7.28-14.24-7.31l-0.13-0.06l-17.75,9.56c-3.97,1.78-5.36,7.2-5.57,8.17c-5.44,3.01-9.73,10.47-12.76,22.2
						c-2.26,8.77-2.93,16.78-2.93,16.86v21.98h74.36v-55.06L297.41,100.89z M296.86,155.42h-73.13v-21.33
						c0.07-0.77,2.81-31.8,15.49-38.62l0.13-0.07l0.03-0.14c0.01-0.06,1.27-6.1,5.27-7.88l17.51-9.42
						c1.8,0.81,20.68,9.46,30.95,19.12c0.19,0.18,0.37,0.36,0.56,0.53c1.22,1.18,2.3,2.37,3.2,3.57V155.42z"/>
				</g>
			</g>
			<g>
				<g>
					<path class="st1" d="M235.81,158.14c0,0-22.1-44.2-24.11-51.79c-2.01-7.59-5.73-22.25-5.04-26.9c0.7-4.65-6.43,2.48-7.2,9.21
						c0,0-3.48-10.55-8.77-3.62c0,0-4.56,0.06-4.11,4.11c0,0-3.49-0.11-3.21,4c0,0-4.67,1.63-0.39,7.71l9.93,30.39l5.53,26.89
						H235.81z"/>
				</g>
				<g>
					<path d="M236.31,158.44h-38.12l-0.05-0.24l-5.53-26.89l-9.9-30.31c-1.6-2.29-2.16-4.25-1.65-5.82
						c0.44-1.36,1.54-2.01,2.01-2.23c-0.05-1.32,0.27-2.35,0.97-3.07c0.75-0.77,1.72-0.97,2.23-1.02c-0.05-1.06,0.23-1.95,0.84-2.64
						c1.1-1.24,2.91-1.45,3.45-1.48c1.39-1.78,2.81-2.56,4.21-2.32c2.3,0.39,3.89,3.42,4.59,5.08c0.97-4.63,4.45-8.97,6.21-9.71
						c0.56-0.23,0.9-0.11,1.08,0.04c0.35,0.27,0.46,0.82,0.33,1.67c-0.49,3.29,1.2,12.3,5.03,26.78
						c1.98,7.47,23.87,51.29,24.09,51.73L236.31,158.44z M198.69,157.83h36.63c-2.45-4.9-22-44.19-23.91-51.4
						c-3.85-14.56-5.55-23.65-5.04-27.02c0.1-0.67,0.01-1.01-0.1-1.1c-0.08-0.06-0.25-0.05-0.47,0.04
						c-1.74,0.73-5.48,5.6-6.02,10.35l-0.16,1.38l-0.44-1.32c-0.02-0.05-1.77-5.27-4.52-5.73c-1.2-0.2-2.44,0.54-3.71,2.2
						l-0.09,0.12l-0.15,0c-0.02,0-2.06,0.04-3.15,1.28c-0.55,0.62-0.77,1.46-0.66,2.49l0.04,0.35l-0.35-0.01
						c-0.01,0-1.27-0.02-2.11,0.86c-0.6,0.63-0.87,1.58-0.78,2.81l0.02,0.23l-0.22,0.08c-0.01,0-1.39,0.51-1.85,1.93
						c-0.44,1.39,0.1,3.18,1.6,5.31l0.04,0.08l9.93,30.39L198.69,157.83z"/>
				</g>
			</g>
			<g>
				<g>
					<path d="M198.43,104.12l-0.61-0.01c0.01-0.49,0.31-12.07,1.47-14.99l0.57,0.23C198.73,92.16,198.43,104,198.43,104.12z"/>
				</g>
			</g>
			<g>
				<g>
					<path d="M186.41,102.96c-1.49,0-3.37-1.63-3.63-1.87l0.41-0.46c0.8,0.71,3.05,2.35,3.9,1.44c0.89-0.95-0.44-3.56-1.03-4.49
						l0.5-0.35c1.2,1.55,3.45,3.75,4.4,3.06c0.85-0.62,0.28-2.33-0.27-3.46c-0.21-0.37-0.36-0.65-0.41-0.75l0.54-0.3
						c0.02,0.04,0.2,0.32,0.4,0.74c0.81,1.4,2.04,2.97,2.86,2.72c0.06-0.02,0.16-0.07,0.24-0.23c0.54-1.07-0.4-4.47-0.81-5.7
						l0.57-0.21c0.53,1.29,2.26,4.6,3.99,4.34l0.09,0.61c-1.32,0.19-2.51-1.05-3.35-2.31c0.28,1.32,0.45,2.79,0.06,3.55
						c-0.14,0.27-0.34,0.46-0.6,0.54c-0.79,0.25-1.62-0.37-2.32-1.18c0.14,0.84,0.04,1.65-0.63,2.14c-1.03,0.75-2.57-0.36-3.72-1.47
						c0.42,1.12,0.65,2.41-0.07,3.18C187.23,102.82,186.84,102.96,186.41,102.96z"/>
				</g>
			</g>
			<g>
				<g>
					<path d="M193.78,93.9c-1.42-1.82-3.29-8.49-3.37-8.77l0.59-0.16c0.02,0.07,1.92,6.83,3.27,8.56L193.78,93.9z"/>
				</g>
			</g>
			<g>
				<g>
					<rect x="188.5" y="88.56" transform="matrix(0.8661 -0.4999 0.4999 0.8661 -21.2019 106.8444)" width="0.61" height="8.87"/>
				</g>
			</g>
			<g>
				<g>
					<rect x="184.76" y="92.62" transform="matrix(0.8184 -0.5747 0.5747 0.8184 -21.2921 123.7134)" width="0.61" height="5.84"/>
				</g>
			</g>
			<g>
				<g>
					<path d="M192.98,131.55l-0.14-0.6c0.15-0.04,15.35-3.57,25.16-9.54l0.32,0.52C208.43,127.96,193.14,131.51,192.98,131.55z"/>
				</g>
			</g>
			<g>
				<g>
					<path d="M194.91,141.16l-0.05-0.61c9.22-0.73,27.18-10.12,27.36-10.21l0.28,0.54C222.33,130.98,204.26,140.42,194.91,141.16z"
						/>
				</g>
			</g>
			<g>
				<g>
					<circle cx="197.41" cy="135.28" r="1.09"/>
				</g>
			</g>
			<g>
				<g>
					<path d="M269.99,160.81c-0.19-0.45-19.39-44.86-11.72-63.93c1.48-3.69,3.89-6.25,7.16-7.61c18.96-7.9,34.06,24.43,34.21,24.76
						l-0.56,0.26c-0.15-0.32-15-32.12-33.41-24.45c-3.11,1.3-5.41,3.74-6.83,7.28c-7.57,18.83,11.52,63.01,11.72,63.45
						L269.99,160.81z"/>
				</g>
			</g>
			<g>
				<g>
					<path d="M251.84,105.15c-0.07,0-0.15-0.01-0.23-0.02c-2.75-0.37-5.52-7.75-5.82-8.58l0.58-0.21c0.8,2.18,3.31,7.91,5.33,8.19
						c0.45,0.06,0.86-0.17,1.25-0.72c1.27-1.77,3.12-6.81,4.92-11.67c2.42-6.55,4.7-12.74,6.32-13.76l0.33,0.52
						c-1.45,0.91-3.91,7.57-6.08,13.45c-1.89,5.13-3.68,9.98-5,11.82C252.98,104.82,252.44,105.15,251.84,105.15z"/>
				</g>
			</g>
			<g>
				<g>
					<path d="M241,104.1c0,0,1.78-6.02,5.03-8.15c3.26-2.13,0,0,0,0l0,0c0,0,1.15,5.22,2.31,5.41c0,0-0.79,4.39-2.53,4.33
						C245.81,105.69,242.33,105.64,241,104.1z"/>
				</g>
			</g>
			<g>
				<g>
					<path d="M240.49,105.13c0,0,2,2.61,5.32,1.43c0,0,0.38,43.77,18.54,50.81h-25.96C238.39,157.37,228.07,127.67,240.49,105.13z"
						/>
				</g>
			</g>
			<g>
				<g>
					<path class="st1" d="M262.14,77.62l-16.11,18.33c-1.3-5.46-4.8-10.37-7.49-13.5c-1.92-2.23-3.42-3.57-3.42-3.57
						c-18.7,4.43-14.79-7.53-12.65-9.7c2.14-2.17,1.82-4.96,1.82-4.96c-3.35-1.87-1.35-2.78,0.22-4.17
						c1.56-1.39,0.87-7.13,0.87-7.13l3.72-0.21c0,0-0.29,2.07,0.53,2.07c0.81,0,4.9,1.93,5.87,1.78c0.96-0.15-0.82-2.89-0.82-2.89
						c0.96,0.1,3.75,3.46,5.44,7.7c0.35,0.89,1.01,2.12,2.15,1.95c0.93-0.13,1.67-1.04,2.19-1.74c1.48-1.99,2.57-4.3,4.63-5.78
						c1.32-0.95,2.98-1,4.54-0.62c2.22,0.54,3.71,2.22,4.24,4.42c1.35,5.67-5.92,8.42-5.92,8.42
						C252.19,71.51,262.14,77.62,262.14,77.62z"/>
				</g>
				<g>
					<path d="M245.87,96.59l-0.14-0.58c-1.29-5.41-4.75-10.26-7.43-13.37c-1.58-1.84-2.89-3.08-3.28-3.44
						c-9.43,2.21-12.86,0.12-14.06-2.03c-1.6-2.85,0.01-6.93,1.29-8.22c1.73-1.76,1.77-3.97,1.74-4.56
						c-1.19-0.68-1.77-1.31-1.83-1.95c-0.07-0.81,0.69-1.44,1.5-2.1c0.21-0.17,0.43-0.35,0.64-0.54c1.18-1.05,0.96-5.31,0.77-6.87
						l-0.04-0.32l4.41-0.25l-0.05,0.37c-0.08,0.54-0.08,1.42,0.14,1.68c0.03,0.04,0.06,0.04,0.09,0.04c0.39,0,1.21,0.3,2.51,0.79
						c1.2,0.45,2.85,1.06,3.31,1c0.15-0.22-0.35-1.37-1.03-2.42l-0.35-0.54l0.64,0.07c1.2,0.12,4.06,3.79,5.69,7.89
						c0.51,1.29,1.1,1.87,1.82,1.76c0.78-0.11,1.44-0.88,1.99-1.62c0.41-0.55,0.8-1.14,1.18-1.72c0.98-1.49,2-3.03,3.52-4.13
						c1.24-0.89,2.9-1.13,4.79-0.67c2.26,0.55,3.89,2.24,4.46,4.65c0.58,2.44-0.3,4.74-2.55,6.64c-1.35,1.14-2.78,1.81-3.33,2.04
						c0.61,3.35,9.93,9.11,10.03,9.17l0.31,0.19L245.87,96.59z M235.2,78.54l0.12,0.11c0.02,0.01,1.54,1.38,3.45,3.6
						c2.63,3.06,6,7.77,7.41,13.06l15.49-17.62c-1.72-1.09-9.81-6.36-10.03-9.67l-0.02-0.23l0.21-0.08c0.07-0.03,7-2.72,5.73-8.06
						c-0.52-2.17-1.98-3.7-4.01-4.19c-1.19-0.29-2.91-0.42-4.29,0.58c-1.43,1.03-2.37,2.46-3.37,3.97
						c-0.38,0.58-0.77,1.18-1.19,1.74c-0.62,0.84-1.4,1.73-2.4,1.87c-1.02,0.16-1.86-0.57-2.48-2.14c-1.29-3.24-3.09-5.71-4.24-6.84
						c0.34,0.67,0.62,1.44,0.43,1.86c-0.09,0.19-0.26,0.32-0.48,0.35c-0.58,0.09-1.81-0.35-3.62-1.03c-0.94-0.35-2-0.75-2.3-0.75
						c-0.22,0-0.41-0.09-0.55-0.25c-0.36-0.41-0.36-1.28-0.32-1.8l-3.03,0.17c0.13,1.33,0.46,5.77-1.01,7.07
						c-0.22,0.19-0.44,0.38-0.66,0.55c-0.68,0.56-1.32,1.08-1.28,1.57c0.04,0.44,0.6,0.96,1.66,1.55l0.14,0.08l0.02,0.16
						c0.01,0.12,0.31,2.96-1.9,5.21c-1.03,1.04-2.68,4.85-1.19,7.49c1.11,1.98,4.36,3.87,13.55,1.7L235.2,78.54z"/>
				</g>
			</g>
			<g>
				<g>
					<path d="M238.42,82.12c-1.92-2.23-3.42-3.57-3.42-3.57s4.65-0.94,6.26-5.44C241.25,73.11,242.27,78.38,238.42,82.12z"/>
				</g>
			</g>
			<g>
				<g>
					<path d="M247.86,64.21c-0.02,0-0.04,0-0.06-0.01c-0.16-0.04-0.27-0.2-0.24-0.36c0.01-0.05,1.2-5.39,5.82-5.39
						c0.02,0,0.04,0,0.06,0c0.17,0,0.3,0.14,0.3,0.31c0,0.17-0.14,0.3-0.31,0.3c-0.04,0-0.04,0-0.06,0c-4.12,0-5.18,4.7-5.22,4.91
						C248.13,64.11,248,64.21,247.86,64.21z"/>
				</g>
			</g>
			<g>
				<g>
					<path d="M249.22,68.83c-1.84,0-3-0.7-3.07-0.75c-0.14-0.09-0.19-0.28-0.1-0.42c0.09-0.14,0.28-0.19,0.42-0.1
						c0.02,0.01,2.26,1.35,5.37,0.15c0.16-0.06,0.33,0.02,0.4,0.18c0.06,0.16-0.02,0.33-0.18,0.4
						C251,68.69,250.04,68.83,249.22,68.83z"/>
				</g>
			</g>
			<g>
				<g>
					<path d="M227.95,69.4c-1.06,0-1.97-0.3-2.03-0.32c-0.16-0.05-0.25-0.23-0.19-0.39c0.05-0.16,0.23-0.25,0.39-0.19
						c0.02,0.01,2.4,0.79,3.75-0.26c0.73-0.57,0.8-1.61,0.69-3.07c-0.01-0.17,0.26-0.42,0.43-0.43c0.15-0.02,0.42,0.22,0.43,0.39
						c0.13,1.69-0.27,2.9-1.17,3.6C229.56,69.24,228.71,69.4,227.95,69.4z"/>
				</g>
			</g>
			<g>
				<g>
					<path d="M226.85,58.07c0.15,2.09,3.57,2.7,6.11,1.59c0,0-1.7-0.25-2.62-0.91C229.41,58.1,226.74,56.56,226.85,58.07z"/>
				</g>
			</g>
		</g>
		<g style="clip-path:url(#SVGID_00000147218547890584824060000003992034165304406949_);">
			<path d="M240.15,101.79c-0.46,0-0.87-0.16-1.21-0.46c-1.9-1.68-0.1-6.32-0.02-6.52l0.57,0.22c-0.48,1.23-1.45,4.68-0.15,5.84
				c0.27,0.24,0.57,0.34,0.94,0.3c1.49-0.13,3.25-2.32,3.26-2.35l0.48,0.38c-0.08,0.1-1.94,2.42-3.69,2.58
				C240.27,101.79,240.21,101.79,240.15,101.79z"/>
		</g>
	</g>
	<g>
		<path d="M232.96,151.1c-33.74,0-61.19-27.45-61.19-61.19s27.45-61.19,61.19-61.19s61.19,27.45,61.19,61.19
			S266.7,151.1,232.96,151.1z M232.96,29.32c-33.4,0-60.58,27.18-60.58,60.58s27.18,60.58,60.58,60.58s60.58-27.18,60.58-60.58
			S266.36,29.32,232.96,29.32z"/>
	</g>
	<g>
		<g>
			<path d="M88.97,61.39c0,0-34.57,0.65-33.08,22.97s4.35,33.88-5.72,42.81s-11.68,11.68-12.02,20.6
				c-0.34,8.93,2.29,12.93-6.3,23.92s0.69,26.33,6.3,29.53c5.61,3.2,58.95-123.28,58.95-123.28s7.61-0.34,6.81-8.01
				S96.98,60.73,88.97,61.39z"/>
		</g>
	</g>
	<g>
		<g>
			<polygon class="st2" points="165.1,215.39 202.34,215.39 199.98,219.58 155.16,219.58 			"/>
		</g>
	</g>
	<g>
		<g>
			<path class="st2" d="M202.34,219.58l23.56-51.28c0.51-1.11,1.62-1.83,2.85-1.83h49.35c2.02,0,3.36,2.08,2.52,3.92l-22.35,49.19
				H202.34z"/>
		</g>
	</g>
	<g>
		<g>
			<path class="st1" d="M95.27,108.58c-0.15,1.23,0.17,3.56,0.73,6.35c1.72,8.45,5.71,21.2,5.71,21.2
				c-6.29,6.53-29.65-6.44-29.65-6.44c5.28-9.63,1.4-26,1.4-26c-4.89-1.01-10.33-4.54-8.62-9.71c0.5-1.48,2.82-3.46,10.34-0.78
				C82.7,95.88,86.9,78.64,86.9,78.64c5.41,1.31,10.19-0.7,10.19-0.7s1.78,3.77,2.64,5.97c0.87,2.21,3.15,1.18,3.98,2.64
				c0.83,1.46-1.62,3.39-1.62,3.39s1.01,4.03,1.87,11.18C104.82,108.27,95.27,108.58,95.27,108.58z"/>
		</g>
		<g>
			<path d="M96.18,138.28c-3.02,0-6.94-0.88-11.75-2.64c-6.57-2.41-12.45-5.65-12.51-5.69l-0.27-0.15l0.15-0.27
				c4.86-8.87,1.81-23.75,1.41-25.6c-2.93-0.64-6.56-2.31-8.19-5.12c-0.89-1.54-1.04-3.2-0.47-4.94c0.25-0.75,0.84-1.38,1.66-1.78
				c1.92-0.93,4.97-0.66,9.07,0.8c1.2,0.43,2.4,0.33,3.55-0.29c4.94-2.66,7.74-13.94,7.77-14.05l0.07-0.3l0.3,0.07
				c5.24,1.27,9.95-0.66,10-0.68l0.27-0.11l0.13,0.26c0.02,0.04,1.8,3.8,2.65,5.99c0.43,1.08,1.22,1.28,2.06,1.48
				c0.72,0.18,1.47,0.36,1.9,1.12c0.82,1.46-0.98,3.18-1.54,3.66c0.21,0.88,1.08,4.8,1.83,11.03c0.22,1.86-0.22,3.44-1.3,4.7
				c-2.19,2.55-6.32,3.01-7.42,3.09c-0.08,1.15,0.18,3.17,0.75,6c1.7,8.34,5.66,21.05,5.7,21.17l0.05,0.17l-0.13,0.13
				C100.69,137.64,98.77,138.28,96.18,138.28z M72.48,129.57c2.57,1.39,23.02,12.11,28.89,6.48c-0.49-1.57-4.07-13.23-5.66-21.06
				c-0.63-3.11-0.88-5.28-0.74-6.45l0.03-0.26l0.26-0.01c0.05,0,4.94-0.2,7.25-2.89c0.97-1.12,1.35-2.55,1.15-4.22
				c-0.84-7.04-1.85-11.1-1.86-11.14l-0.05-0.19l0.16-0.12c0.62-0.49,2.11-1.99,1.54-3c-0.3-0.53-0.86-0.67-1.51-0.82
				c-0.87-0.21-1.95-0.47-2.49-1.85c-0.72-1.84-2.1-4.81-2.52-5.7c-1.08,0.4-5.16,1.71-9.81,0.67c-0.49,1.86-3.22,11.58-8,14.15
				c-1.31,0.71-2.67,0.82-4.05,0.33c-4.91-1.75-7.39-1.42-8.6-0.83c-0.86,0.42-1.2,1-1.34,1.42c-0.52,1.56-0.38,3.06,0.42,4.44
				c1.56,2.7,5.14,4.29,7.97,4.87l0.19,0.04l0.04,0.19C73.8,103.78,77.54,119.91,72.48,129.57z"/>
		</g>
	</g>
	<g>
		<g>
			<path d="M96.01,114.93c-3.26-1.03-9.76-3.5-9.29-6.68c-0.02-0.54,0.78-1.17,3.35-0.63c2.58,0.53,4.2,0.51,5.17,0.67
				C95.09,109.52,95.44,112.14,96.01,114.93z"/>
		</g>
	</g>
	<g>
		<g>
			<path class="st1" d="M138.43,209.78l-45.77,1.41l-0.97-12.88c0,0-18.86,15.23-35.91,20.79c-1.58,0.52-3.14,0.95-4.67,1.28
				c-18.07,3.9-18.83-4.11-19.04-6.49c-0.22-2.38,12.44-42.53,17.31-60.05c4.87-17.53,12.16-28.83,25.97-26.73
				c6.84,1.04,8.42,4.84,16.01,8.21c7.6,3.38,9.76-1.18,9.76-1.18l-2.38-8.21c8.84-0.63,12.96,13.73,15.99,20.87
				c3.03,7.14,13.42,23.91,13.42,23.91l-4.22,13.64L138.43,209.78z"/>
		</g>
		<g>
			<path d="M42.54,221.74c-3.41,0-6.03-0.67-7.86-2.01c-2.58-1.9-2.83-4.64-2.94-5.81c-0.13-1.4,3.39-13.25,9.2-32.6
				c3.05-10.16,6.2-20.66,8.12-27.57c5.71-20.54,13.82-28.85,26.31-26.95c4.05,0.62,6.32,2.2,8.94,4.04c1.87,1.31,3.99,2.8,7.14,4.2
				c6.68,2.97,8.94-0.29,9.31-0.93l-2.45-8.46l0.38-0.03c7.81-0.56,11.95,9.99,14.95,17.7c0.47,1.22,0.92,2.37,1.35,3.36
				c2.99,7.03,13.29,23.7,13.4,23.87l0.07,0.12l-4.22,13.64l14.69,25.75l-46.57,1.43l-0.95-12.6c-2.98,2.34-20.1,15.44-35.55,20.49
				c-1.59,0.52-3.17,0.96-4.7,1.29C47.89,221.39,45.01,221.74,42.54,221.74z M72.09,127.16c-10.33,0-17.33,8.42-22.42,26.76
				c-1.92,6.91-5.07,17.42-8.13,27.58c-4.57,15.23-9.3,30.98-9.18,32.37c0.11,1.18,0.33,3.63,2.69,5.37c3,2.21,8.37,2.49,15.98,0.85
				c1.51-0.33,3.07-0.75,4.64-1.27c16.8-5.48,35.62-20.59,35.81-20.74l0.45-0.37l1,13.17l44.97-1.38l-14.31-25.1l4.22-13.63
				c-0.94-1.52-10.49-17.07-13.37-23.83c-0.43-1.01-0.88-2.16-1.35-3.38c-2.89-7.4-6.82-17.46-13.96-17.32l2.31,7.95l-0.05,0.11
				c-0.02,0.05-2.38,4.78-10.16,1.32c-3.2-1.42-5.35-2.93-7.24-4.25c-2.67-1.87-4.78-3.34-8.69-3.94
				C74.19,127.25,73.12,127.16,72.09,127.16z"/>
		</g>
	</g>
	<g>
		<g>
			<path d="M55.77,219.1c-1.58,0.52-3.14,0.95-4.67,1.28c-18.07,3.9-18.83-4.11-19.04-6.49c5.52-10.79,17.42-9.13,17.42-9.13
				L55.77,219.1z"/>
		</g>
	</g>
	<g>
		<g>
			<path d="M91.98,198.31l-0.61,0c0-0.61,0.08-61.27-13.66-70.36l0.34-0.51c5.9,3.91,10.04,17.03,12.3,39.02
				C92.02,182.77,91.99,198.16,91.98,198.31z"/>
		</g>
	</g>
	<g>
		<g>
			<path d="M123.01,183.82c-0.2-0.41-19.83-41.44-22.19-49.59l0.59-0.17c2.35,8.09,21.96,49.08,22.16,49.49L123.01,183.82z"/>
		</g>
	</g>
	<g>
		<g>
			<path class="st1" d="M121.88,100.38c-1.58,2.68,7.72,19.16,8.04,41.72c0.32,22.56,0,30.93,0,30.93l-2.16-1.32l-4.48,11.99
				l13.89,23.91c0,0,26.11,5.93,25.44-17.92c-0.67-23.85-3.62-46.6-7.35-58.18c-1-3.1-2.15-6.16-3.36-9.18
				c-1.27-3.18-2.6-6.32-3.99-9.45c-0.86-1.96-1.77-3.94-2.68-5.89c-0.73-1.57-1.41-3.18-2.22-4.71c-0.7-1.33-1.62-2.6-2.98-3.3
				c-1.84-0.94-0.8,2.23-0.57,2.91c2.01,5.87-6.03-8.84-8.13-7.76c-1.76,0.9,0.61,5.84,0.61,5.84s-5.72-8.74-7.35-6.11
				c-1.63,2.63,6.41,15.21,6.41,15.21S123.21,98.12,121.88,100.38z"/>
		</g>
		<g>
			<path d="M143.84,208.54c-3.8,0-6.67-0.63-6.73-0.64l-0.13-0.03l-14.03-24.15l4.66-12.48l2.03,1.24
				c0.06-2.16,0.25-11.15-0.02-30.39c-0.2-14.08-3.86-25.61-6.28-33.24c-1.49-4.68-2.38-7.51-1.72-8.63
				c0.17-0.28,0.43-0.44,0.75-0.46c1.28-0.05,3.68,2.5,5.69,4.93c-2.22-3.96-4.8-9.29-3.72-11.03c0.26-0.41,0.63-0.63,1.07-0.64
				c0.01,0,0.01,0,0.02,0c1.54,0,3.84,2.7,5.34,4.69c-0.46-1.53-0.7-3.32,0.43-3.9c1.26-0.64,3.44,2.22,6.39,6.33
				c0.63,0.88,1.32,1.84,1.77,2.38c-0.04-0.15-0.1-0.34-0.18-0.58c-0.61-1.78-0.68-2.9-0.2-3.31c0.28-0.24,0.68-0.23,1.2,0.03
				c1.22,0.62,2.21,1.72,3.11,3.43c0.57,1.08,1.08,2.21,1.58,3.3c0.22,0.48,0.43,0.95,0.65,1.42c0.95,2.03,1.85,4.01,2.68,5.9
				c1.48,3.36,2.79,6.46,3.99,9.46c1.46,3.66,2.5,6.49,3.37,9.2c3.81,11.84,6.7,34.72,7.36,58.27c0.19,6.67-1.69,11.66-5.58,14.86
				C153.4,207.77,148.05,208.54,143.84,208.54z M137.37,207.32c1.34,0.27,12.71,2.38,19.59-3.28c3.73-3.07,5.53-7.9,5.35-14.37
				c-0.66-23.5-3.54-46.3-7.34-58.1c-0.87-2.69-1.9-5.52-3.36-9.16c-1.2-3-2.5-6.09-3.98-9.44c-0.83-1.88-1.73-3.86-2.67-5.89
				c-0.22-0.47-0.44-0.95-0.65-1.43c-0.49-1.09-1-2.21-1.56-3.27c-0.85-1.6-1.75-2.61-2.85-3.17c-0.3-0.15-0.47-0.16-0.52-0.12
				c-0.16,0.14-0.2,0.96,0.38,2.65c0.41,1.2,0.44,1.59,0.12,1.75c-0.42,0.22-0.81-0.25-2.78-3c-1.54-2.14-4.73-6.6-5.62-6.14
				c-1.22,0.62,0.17,4.22,0.75,5.44l-0.53,0.3c-1.18-1.8-4.6-6.46-6.27-6.46c0,0-0.01,0-0.01,0c-0.24,0-0.41,0.11-0.56,0.35
				c-1.26,2.03,4.2,11.43,6.41,14.89l-0.51,0.34c-2.45-3.43-6.86-8.84-8.34-8.84c-0.01,0-0.02,0-0.03,0c-0.11,0-0.19,0.05-0.25,0.16
				l0,0c-0.52,0.88,0.44,3.93,1.78,8.14c2.43,7.66,6.11,19.25,6.31,33.42c0.31,22.31,0,30.86,0,30.94l-0.02,0.52l-2.29-1.4
				l-4.3,11.51L137.37,207.32z"/>
		</g>
	</g>
	<g>
		<g>
			<path d="M145.6,135.3l-0.61-0.02c0.13-3.2-2-4.36-3.41-5.13l-0.13-0.07c-0.62-0.34-1.91-2.36-4.12-5.91
				c-2.4-3.84-5.39-8.62-6.87-9.53c-0.2-0.12-0.55-0.3-0.71-0.18c-0.45,0.35-0.51,2.36,1.78,9.91c0.85,2.81,0.97,4.47,0.36,5.06
				c-0.27,0.26-0.6,0.24-0.75,0.19l0.18-0.58c0.02,0.01,0.09,0.01,0.15-0.05c0.15-0.15,0.54-0.93-0.53-4.43
				c-2.06-6.78-2.52-9.85-1.57-10.58c0.35-0.27,0.82-0.22,1.41,0.14c1.6,0.98,4.5,5.63,7.06,9.73c1.66,2.66,3.38,5.41,3.9,5.7
				l0.13,0.07C143.32,130.39,145.74,131.72,145.6,135.3z"/>
		</g>
	</g>
	<g>
		<g>
			<path d="M149.55,128.16c-3.58-6.57-9.91-7.04-9.97-7.04l0.04-0.61c0.07,0,6.73,0.5,10.47,7.36L149.55,128.16z"/>
		</g>
	</g>
	<g>
		<g>
			<rect x="131.72" y="107.9" transform="matrix(0.8611 -0.5085 0.5085 0.8611 -38.0665 82.548)" width="0.61" height="6.06"/>
		</g>
	</g>
	<g>
		<g>
			<rect x="134.59" y="97.63" transform="matrix(0.8743 -0.4853 0.4853 0.8743 -33.9565 78.6506)" width="0.61" height="14.53"/>
		</g>
	</g>
	<g>
		<g>
			<rect x="141.14" y="102.09" transform="matrix(0.8823 -0.4706 0.4706 0.8823 -33.5452 79.1129)" width="0.61" height="9.1"/>
		</g>
	</g>
	<g>
		<g>
			<path d="M128.9,186.17l-0.61-0.08c0.01-0.09,1.24-9.07,1.32-13.08l0.61,0.01C130.14,177.07,128.91,186.08,128.9,186.17z"/>
		</g>
	</g>
	<g>
		<g>
			<path class="st1" d="M47.62,204.94c0,0-2.04,44.5,43.56,38.95c9.65-1.57,19.66-4.58,27.98-8.56s30.64-13.99,38-15.92
				c7.36-1.93,20.85-2.98,20.42-9.17c-0.34-1.61-2.22-2.02-2.22-2.02s1.17-2.79-2.01-4.67c0,0,1.49-3.63-2.34-5.26
				c0,0-0.26-5.06-9.41-4.87c-9.15,0.19-35.69,2.79-37.7,3.18c-2.01,0.39-31.44,7.5-31.78,7.56l-0.44-5.84
				c0,0-14.74,5.32-24.43,4.56S47.62,204.94,47.62,204.94z"/>
		</g>
		<g>
			<path d="M83.64,244.67c-10.23,0-18.49-2.86-24.62-8.55c-12.45-11.55-11.71-31-11.71-31.2l0.01-0.22l0.21-0.06
				c0.1-0.03,10.1-2.82,19.73-2.07c9.52,0.73,24.16-4.49,24.3-4.55l0.38-0.14l0.45,5.89c0.99-0.23,4.08-0.98,7.84-1.88
				c8.87-2.13,22.27-5.35,23.61-5.61c2.02-0.39,28.44-2.99,37.75-3.18c8.43-0.16,9.55,3.99,9.7,4.96c3.28,1.49,2.68,4.46,2.42,5.33
				c2.49,1.6,2.23,3.78,2.03,4.6c0.6,0.2,1.85,0.79,2.14,2.16c0.36,5.2-8.01,6.89-15.39,8.38c-1.91,0.39-3.71,0.75-5.25,1.15
				c-7.4,1.94-29.83,12.02-37.94,15.9c-8.23,3.93-18.19,6.99-28.07,8.59C88.59,244.51,86.06,244.67,83.64,244.67z M47.92,205.17
				c-0.04,2.18-0.01,19.81,11.52,30.5c7.44,6.9,18.11,9.56,31.7,7.91c9.8-1.59,19.71-4.63,27.89-8.54
				c8.12-3.89,30.61-13.99,38.05-15.94c1.56-0.41,3.37-0.77,5.29-1.16c7.14-1.44,15.22-3.07,14.91-7.69
				c-0.29-1.35-1.96-1.74-1.98-1.74l-0.36-0.08l0.14-0.34c0.04-0.1,1.02-2.57-1.88-4.29l-0.23-0.13l0.1-0.25
				c0.06-0.14,1.33-3.38-2.17-4.86l-0.18-0.07l-0.01-0.19c-0.01-0.19-0.39-4.75-9.1-4.58c-9.3,0.2-35.64,2.79-37.65,3.17
				c-1.32,0.26-14.72,3.47-23.58,5.6c-5.46,1.31-8.09,1.94-8.21,1.96l-0.33,0.05l-0.44-5.78c-2.38,0.82-15.4,5.14-24.18,4.45
				C58.48,202.51,49.43,204.78,47.92,205.17z"/>
		</g>
	</g>
	<g>
		<g>
			<path d="M162.91,198.95l-0.18-0.59c0.23-0.07,5.63-1.7,8.42-0.36l-0.27,0.55C168.32,197.32,162.96,198.93,162.91,198.95z"/>
		</g>
	</g>
	<g>
		<g>
			<path d="M165.2,204.44l-0.19-0.58c0.2-0.07,5.03-1.62,8.43-0.61l-0.17,0.59C170.05,202.87,165.24,204.42,165.2,204.44z"/>
		</g>
	</g>
	<g>
		<g>
			<path d="M167.92,209.34l-0.22-0.57c0.18-0.07,4.54-1.74,8.14-0.73l-0.17,0.59C172.27,207.67,167.96,209.32,167.92,209.34z"/>
		</g>
	</g>
	<g>
		<g>
			<rect x="77.34" y="206.69" transform="matrix(0.9291 -0.3699 0.3699 0.9291 -70.5338 46.1199)" width="15.33" height="0.61"/>
		</g>
	</g>
	<g>
		<g>
			<path d="M76.39,99.76c-0.1,0-0.2-0.05-0.26-0.14c-2.84-4.29-8.24-2.99-8.29-2.97c-0.17,0.04-0.33-0.06-0.37-0.22
				s0.06-0.33,0.22-0.37c0.06-0.02,5.87-1.42,8.95,3.23c0.09,0.14,0.05,0.33-0.09,0.42C76.51,99.75,76.45,99.76,76.39,99.76z"/>
		</g>
	</g>
	<g>
		<g>
			<path d="M97.62,98.34c-1.94,0-3.56-1.93-3.64-2c-0.37-0.28,0.09-0.65,0.22-0.76c0.13-0.11,0.32-0.09,0.43,0.04
				c0.02,0.02,1.45,2.25,3.17,2.11c0.87-0.07,1.64-0.65,2.3-1.74c0.09-0.14,0.28-0.19,0.42-0.1s0.19,0.28,0.1,0.42
				c-0.76,1.26-1.7,1.95-2.78,2.03C97.77,98.34,97.69,98.34,97.62,98.34z"/>
		</g>
	</g>
	<g>
		<g>
			<path d="M96.86,83.53c-1.19,1.33-3.61,5.01-4.52,5.32c-0.91,0.32,2.23,0.86,4.94-1.79C99.99,84.42,96.86,83.53,96.86,83.53z"/>
		</g>
	</g>
	<g>
		<g>
			<path d="M94.21,80.55c-1.16-0.87-5.96,1.26-6.35,3.96c-0.39,2.7,3.57,0.77,3.57,0.77S96.04,81.92,94.21,80.55z"/>
		</g>
	</g>
	<g>
		<g>
			<path d="M75.64,104.35c-0.65,0-1.41-0.1-2.27-0.37c-0.16-0.05-0.25-0.22-0.2-0.38c0.05-0.16,0.22-0.25,0.38-0.2
				c2.92,0.92,4.47-0.29,4.53-0.34c0.13-0.11,0.32-0.08,0.43,0.05c0.11,0.13,0.09,0.32-0.04,0.43
				C78.42,103.58,77.44,104.35,75.64,104.35z"/>
		</g>
	</g>
	<g>
		<g>
			<path class="st1" d="M82.38,66.38c0,0-0.87,21.36-7.2,26.82c0,0,7.52,2.51,11.72-14.56c0.93-7.59,2.13-14.15,2.13-14.15
				L82.38,66.38z"/>
		</g>
		<g>
			<path d="M76.23,93.64c-0.68,0-1.1-0.14-1.14-0.15l-0.51-0.17l0.41-0.35c6.16-5.31,7.09-26.39,7.1-26.6l0.01-0.22l7.34-2.08
				l-0.09,0.48c-0.01,0.07-1.21,6.64-2.13,14.13c-2.29,9.32-5.59,12.83-7.96,14.13C78.04,93.48,76.97,93.64,76.23,93.64z
				 M75.84,93.01c0.64,0.05,1.79,0,3.14-0.75c2.25-1.25,5.4-4.64,7.63-13.69c0.77-6.31,1.75-11.99,2.04-13.65l-5.97,1.69
				C82.57,68.97,81.52,87.22,75.84,93.01z"/>
		</g>
	</g>
	<g>
		<g>
			<path class="st1" d="M95.29,51.13C93,47.7,84.44,55.89,86.95,64.52C88.43,69.6,99.57,57.57,95.29,51.13z"/>
		</g>
		<g>
			<path d="M88.38,66.04c-0.09,0-0.18-0.01-0.27-0.02c-0.5-0.07-1.15-0.37-1.46-1.42c-1.82-6.23,2.11-12.57,5.6-14.2
				c1.41-0.66,2.61-0.45,3.28,0.56c1.68,2.52,1.26,6.29-1.12,10.07C92.56,64,90.07,66.04,88.38,66.04z M93.78,50.64
				c-0.47,0-0.93,0.17-1.26,0.32c-3.3,1.53-7,7.55-5.27,13.47c0.17,0.6,0.49,0.92,0.95,0.99c1.41,0.21,3.92-1.87,5.71-4.71
				c2.25-3.57,2.67-7.09,1.12-9.4l0,0C94.7,50.8,94.24,50.64,93.78,50.64z"/>
		</g>
	</g>
	<g>
		<g>
			<path class="st1" d="M87.06,59.63c-1.18-0.04-2.73,0.1-3.39,1.23c-0.71,1.2,0.04,2.9,0.88,3.84c1.54,1.73,4.24,0.8,4.69-1.32
				C89.56,61.85,88.91,59.7,87.06,59.63z"/>
		</g>
		<g>
			<path d="M86.51,65.92c-0.82,0-1.61-0.35-2.19-1.01c-0.82-0.92-1.74-2.8-0.91-4.2c0.59-0.99,1.78-1.44,3.67-1.38
				c0.73,0.03,1.36,0.35,1.82,0.93c0.63,0.81,0.88,2.06,0.64,3.19c-0.25,1.16-1.11,2.06-2.26,2.37
				C87.02,65.89,86.76,65.92,86.51,65.92z M86.72,59.93c-1.45,0-2.36,0.36-2.79,1.09c-0.58,0.99,0,2.54,0.84,3.49
				c0.61,0.69,1.47,0.95,2.34,0.72c0.92-0.24,1.62-0.97,1.81-1.9c0.2-0.95-0.01-2.03-0.53-2.69c-0.35-0.44-0.8-0.68-1.36-0.69l0,0
				C86.94,59.94,86.83,59.93,86.72,59.93z"/>
		</g>
	</g>
	<g>
		<g>
			<path class="st1" d="M70.03,57.82c-3.2,4.48,12.55,14.29,15.25,7.08C87.98,57.7,72.28,54.67,70.03,57.82z"/>
		</g>
		<g>
			<path d="M81.2,67.78c-4.14,0-9.55-3.48-11.29-6.56c-0.77-1.37-0.82-2.61-0.13-3.57l0,0c1.47-2.06,7.9-1.76,12.28,0.57
				c3.25,1.73,4.5,4.15,3.51,6.79c-0.62,1.65-1.94,2.6-3.82,2.74C81.56,67.77,81.38,67.78,81.2,67.78z M70.28,58
				c-0.68,0.96-0.29,2.11,0.17,2.91c1.69,3,7.32,6.54,11.25,6.23c1.65-0.13,2.76-0.92,3.3-2.35c1.18-3.13-1.51-5.13-3.22-6.04
				C77.78,56.63,71.55,56.22,70.28,58L70.28,58z"/>
		</g>
	</g>
</g>
</svg>
